<?xml version="1.0" encoding="UTF-8" standalone="no"?>
<svg width="308px" height="13px" viewBox="0 0 308 13" version="1.1" xmlns="http://www.w3.org/2000/svg" xmlns:xlink="http://www.w3.org/1999/xlink" xmlns:sketch="http://www.bohemiancoding.com/sketch/ns">
    <!-- Generator: Sketch 3.2.2 (9983) - http://www.bohemiancoding.com/sketch -->
    <title>Status Bar</title>
    <desc>Created with Sketch.</desc>
    <defs></defs>
    <g id="Main-Screens" stroke="none" stroke-width="1" fill="none" fill-rule="evenodd" sketch:type="MSPage">
        <g id="Card-Create-3" sketch:type="MSArtboardGroup" transform="translate(-881.000000, -186.000000)" fill="#FFFFFF">
            <g id="Phone-Maximized" sketch:type="MSLayerGroup" transform="translate(395.000000, 88.000000)">
                <g id="Status-Bar-/-Black-2" transform="translate(479.000000, 94.000000)" sketch:type="MSShapeGroup">
                    <g id="Status-Bar" transform="translate(7.000000, 4.000000)">
                        <path d="M308,7 C308,8.01787206 307.130764,8.85994569 306,9 L306,5 C307.130764,5.14005431 308,5.98212794 308,7 Z" id="+"></path>
                        <path d="M283,3.49710104 L283,10.502899 C283,11.329725 283.663541,12 284.509094,12 L304.490906,12 C305.324355,12 306,11.328344 306,10.502899 L306,3.49710104 C306,2.67027497 305.336459,2 304.490906,2 L284.509094,2 C283.675645,2 283,2.67165598 283,3.49710104 Z M304.490906,3 C304.780536,3 305,3.21893282 305,3.49710104 L305,10.502899 C305,10.774886 304.773227,11 304.490906,11 L284.509094,11 C284.219464,11 284,10.7810672 284,10.502899 L284,3.49710104 C284,3.22511398 284.226773,3 284.509094,3 L304.490906,3 Z" id="Battery"></path>
                        <path d="M304,4.5 L304,10 L285.508204,10 C285.226615,10 285,9.78016949 285,9.50899482 L285,4.49100518 C285,4.22788048 285.227531,4 285.508204,4 L304,4 L304,4.5 C303.999165,4.50000017 285.5,4.50386815 285.5,4.49100518 C285.5,4.49100518 285.499429,9.5 285.508204,9.5 L304,9.5 L303.5,10 L303.5,4 L304,4.5 Z" id="Charge"></path>
                        <rect id="Rectangle-2605" x="285" y="4" width="19" height="6"></rect>
                        <path d="M245,11 L245,7 L247,9.09593496 L245,11 L245,11 L245,11 L245,11 Z M247,3.41650184 L245,5 L245,2 L247,3.41650184 L247,3.41650184 L247,3.41650184 L247,3.41650184 Z M245.1451,6.50048137 L247.95913,3.84040584 L243.760513,0 L243.66133,0 L243.66133,5.34133156 L240.811414,2.5248093 L240,3.32389099 L243.42907,6.50048137 L240,9.67659039 L240.811414,10.4756721 L243.66133,7.65914982 L243.66133,13 L243.842751,13 L248,9.14996667 L245.1451,6.50048137 L245.1451,6.50048137 Z" id="Bluetooth-Icon" opacity="0.45"></path>
                        <path d="M80.8870115,8.96350062 C79.8489617,8.96350062 78.898104,9.38556616 78.1592932,9.99427623 L80.8870115,13 L83.6178254,9.99726255 C82.8784986,9.38705931 81.927125,8.96350062 80.8870115,8.96350062 Z M80.9948407,3.01824969 C83.5811944,3.01824969 85.9389914,3.96640398 87.7457758,5.5217752 L89,4.14209871 C86.8594093,2.29307341 84.0635883,1 80.9943248,1 C77.9302206,1 75.1380111,2.28958938 73,4.13363749 L74.2521605,5.51430942 C76.058429,3.96291995 78.4120985,3.01824969 80.9948407,3.01824969 Z M80.9587257,7 C82.5090933,7 83.9253192,7.56092908 85.0175416,8.48270427 L86.3455437,7.02289506 C84.9009416,5.78855247 83.0208951,4.98175031 80.9592416,4.98175031 C78.9011995,4.98175031 77.0237327,5.78606387 75.5796466,7.01692244 L76.9055849,8.47872252 C77.9967754,7.55844048 79.4109377,7 80.9587257,7 Z" id="Wifi"></path>
                        <circle id="Oval-1" cx="3" cy="7" r="3"></circle>
                        <circle id="Oval-1-copy" cx="10" cy="7" r="3"></circle>
                        <circle id="Oval-1-copy-2" cx="17" cy="7" r="3"></circle>
                        <path d="M27,7 C27,5.34314567 25.6568543,4 24,4 C22.3431457,4 21,5.34314567 21,7 C21,8.65685433 22.3431457,10 24,10 C25.6568543,10 27,8.65685433 27,7 Z M22,7 C22,5.89543042 22.8954304,5 24,5 C25.1045696,5 26,5.89543042 26,7 C26,8.10456958 25.1045696,9 24,9 C22.8954304,9 22,8.10456958 22,7 Z" id="Oval-1-copy-3"></path>
                        <path d="M34,7 C34,5.34314567 32.6568543,4 31,4 C29.3431457,4 28,5.34314567 28,7 C28,8.65685433 29.3431457,10 31,10 C32.6568543,10 34,8.65685433 34,7 Z M29,7 C29,5.89543042 29.8954304,5 31,5 C32.1045696,5 33,5.89543042 33,7 C33,8.10456958 32.1045696,9 31,9 C29.8954304,9 29,8.10456958 29,7 Z" id="Oval-1-copy-4"></path>
                        <path d="M37.897,2.789 L37.897,11 L38.9895,11 L38.9895,7.4925 L41.6575,7.4925 C41.9258347,7.4925 42.1404992,7.5327496 42.3015,7.61325 C42.4625008,7.6937504 42.5928328,7.80108266 42.6925,7.93525 C42.7921672,8.06941734 42.8649998,8.22658243 42.911,8.40675 C42.9570002,8.58691757 42.9953332,8.77666567 43.026,8.976 C43.0643335,9.17533433 43.0873333,9.37849896 43.095,9.5855 C43.1026667,9.79250103 43.1103333,9.98608243 43.118,10.16625 C43.1256667,10.3464176 43.1429165,10.5093326 43.16975,10.655 C43.1965835,10.8006674 43.2483329,10.9156662 43.325,11 L44.544,11 C44.4289994,10.8619993 44.3427503,10.7029176 44.28525,10.52275 C44.2277497,10.3425824 44.1836668,10.1528343 44.153,9.9535 C44.1223332,9.75416567 44.1031667,9.55100103 44.0955,9.344 C44.0878333,9.13699896 44.0763334,8.93383433 44.061,8.7345 C44.0379999,8.53516567 44.0054169,8.34350092 43.96325,8.1595 C43.9210831,7.97549908 43.8559171,7.80875075 43.76775,7.65925 C43.6795829,7.50974925 43.5607507,7.38133387 43.41125,7.274 C43.2617493,7.16666613 43.0681679,7.09000023 42.8305,7.044 L42.8305,7.021 C43.3288358,6.88299931 43.6910822,6.62616854 43.91725,6.2505 C44.1434178,5.87483145 44.2565,5.43783582 44.2565,4.9395 C44.2565,4.27249666 44.0360855,3.74733525 43.59525,3.364 C43.1544145,2.98066475 42.5430039,2.789 41.761,2.789 L37.897,2.789 Z M41.2665,6.5725 L38.9895,6.5725 L38.9895,3.709 L41.7035,3.709 C42.2171692,3.709 42.5889988,3.83933203 42.819,4.1 C43.0490011,4.36066797 43.164,4.69799793 43.164,5.112 C43.164,5.41100149 43.1122505,5.65441573 43.00875,5.84225 C42.9052495,6.03008427 42.7672509,6.17958278 42.59475,6.29075 C42.4222491,6.40191722 42.2210011,6.47666647 41.991,6.515 C41.7609988,6.55333352 41.5195013,6.5725 41.2665,6.5725 L41.2665,6.5725 Z M46.3265,8.033 C46.3265,7.67266486 46.3744162,7.35258473 46.47025,7.07275 C46.5660838,6.79291527 46.6983325,6.55716762 46.867,6.3655 C47.0356675,6.17383237 47.2330822,6.02816716 47.45925,5.9285 C47.6854178,5.82883283 47.9249987,5.779 48.178,5.779 C48.4310013,5.779 48.6705822,5.82883283 48.89675,5.9285 C49.1229178,6.02816716 49.3203325,6.17383237 49.489,6.3655 C49.6576675,6.55716762 49.7899162,6.79291527 49.88575,7.07275 C49.9815838,7.35258473 50.0295,7.67266486 50.0295,8.033 C50.0295,8.39333513 49.9815838,8.71341527 49.88575,8.99325 C49.7899162,9.27308473 49.6576675,9.50691573 49.489,9.69475 C49.3203325,9.88258427 49.1229178,10.0263328 48.89675,10.126 C48.6705822,10.2256672 48.4310013,10.2755 48.178,10.2755 C47.9249987,10.2755 47.6854178,10.2256672 47.45925,10.126 C47.2330822,10.0263328 47.0356675,9.88258427 46.867,9.69475 C46.6983325,9.50691573 46.5660838,9.27308473 46.47025,8.99325 C46.3744162,8.71341527 46.3265,8.39333513 46.3265,8.033 L46.3265,8.033 Z M45.2915,8.033 C45.2915,8.47000218 45.3528327,8.87633145 45.4755,9.252 C45.5981673,9.62766854 45.7821654,9.95541527 46.0275,10.23525 C46.2728346,10.5150847 46.5756649,10.7335825 46.936,10.89075 C47.2963351,11.0479175 47.710331,11.1265 48.178,11.1265 C48.6533357,11.1265 49.0692482,11.0479175 49.42575,10.89075 C49.7822518,10.7335825 50.0831654,10.5150847 50.3285,10.23525 C50.5738346,9.95541527 50.7578327,9.62766854 50.8805,9.252 C51.0031673,8.87633145 51.0645,8.47000218 51.0645,8.033 C51.0645,7.59599781 51.0031673,7.1877519 50.8805,6.80825 C50.7578327,6.4287481 50.5738346,6.09908473 50.3285,5.81925 C50.0831654,5.53941527 49.7822518,5.3190008 49.42575,5.158 C49.0692482,4.99699919 48.6533357,4.9165 48.178,4.9165 C47.710331,4.9165 47.2963351,4.99699919 46.936,5.158 C46.5756649,5.3190008 46.2728346,5.53941527 46.0275,5.81925 C45.7821654,6.09908473 45.5981673,6.4287481 45.4755,6.80825 C45.3528327,7.1877519 45.2915,7.59599781 45.2915,8.033 L45.2915,8.033 Z M54.894,11 L57.0675,5.0545 L56.044,5.0545 L54.4225,10.011 L54.3995,10.011 L52.732,5.0545 L51.6395,5.0545 L53.8475,11 L54.894,11 Z M62.093,7.458 L58.6775,7.458 C58.6928334,7.22799885 58.7426662,7.01141768 58.827,6.80825 C58.9113338,6.60508232 59.0263326,6.4268341 59.172,6.2735 C59.3176674,6.1201659 59.4920823,5.99941711 59.69525,5.91125 C59.8984177,5.82308289 60.1264987,5.779 60.3795,5.779 C60.6248346,5.779 60.8490823,5.82308289 61.05225,5.91125 C61.2554177,5.99941711 61.4317493,6.11824925 61.58125,6.26775 C61.7307507,6.41725075 61.8495829,6.59549896 61.93775,6.8025 C62.0259171,7.00950103 62.0776666,7.22799885 62.093,7.458 L62.093,7.458 Z M63.036,9.114 L62.07,9.114 C61.9856662,9.50500195 61.8112513,9.79633237 61.54675,9.988 C61.2822487,10.1796676 60.9430021,10.2755 60.529,10.2755 C60.2069984,10.2755 59.9271679,10.2218339 59.6895,10.1145 C59.4518321,10.0071661 59.2563341,9.86341757 59.103,9.68325 C58.9496659,9.50308243 58.8385003,9.2960845 58.7695,9.06225 C58.7004997,8.8284155 58.6698333,8.58116797 58.6775,8.3205 L63.128,8.3205 C63.1433334,7.96016486 63.1107504,7.58066866 63.03025,7.182 C62.9497496,6.78333134 62.8040844,6.41533502 62.59325,6.078 C62.3824156,5.74066498 62.1025851,5.46275109 61.75375,5.24425 C61.4049149,5.02574891 60.9660026,4.9165 60.437,4.9165 C60.0306646,4.9165 59.6569184,4.9931659 59.31575,5.1465 C58.9745816,5.2998341 58.6794179,5.51449862 58.43025,5.7905 C58.1810821,6.06650138 57.9875007,6.39233145 57.8495,6.768 C57.7114993,7.14366854 57.6425,7.5576644 57.6425,8.01 C57.6578334,8.46233559 57.7249161,8.88016475 57.84375,9.2635 C57.9625839,9.64683525 58.1408321,9.97649862 58.3785,10.2525 C58.6161679,10.5285014 58.9094149,10.7431659 59.25825,10.8965 C59.6070851,11.0498341 60.0191643,11.1265 60.4945,11.1265 C61.16917,11.1265 61.7288311,10.957835 62.1735,10.6205 C62.6181689,10.283165 62.905666,9.78100333 63.036,9.114 L63.036,9.114 Z M64.1055,5.0545 L64.1055,11 L65.083,11 L65.083,8.355 C65.083,7.97166475 65.1213329,7.63241814 65.198,7.33725 C65.274667,7.04208186 65.3973325,6.79100103 65.566,6.584 C65.7346675,6.37699896 65.9569986,6.21983387 66.233,6.1125 C66.5090014,6.00516613 66.842498,5.9515 67.2335,5.9515 L67.2335,4.9165 C66.7044974,4.90116659 66.2675017,5.00849885 65.9225,5.2385 C65.5774983,5.46850115 65.2861679,5.82499758 65.0485,6.308 L65.0255,6.308 L65.0255,5.0545 L64.1055,5.0545 Z" id="Rover"></path>
                        <path d="M256.552552,8.01875862 L255.567724,8.01875862 C255.629518,8.72938286 255.888274,9.25848102 256.344,9.60606897 C256.799726,9.95365691 257.371307,10.1274483 258.058759,10.1274483 C259.055177,10.1274483 259.779308,9.74703829 260.231172,8.9862069 C260.683037,8.22537551 260.908966,7.13435193 260.908966,5.71310345 C260.908966,4.93296162 260.833656,4.28993356 260.683034,3.784 C260.532413,3.27806644 260.329656,2.8783463 260.074759,2.58482759 C259.819861,2.29130888 259.522484,2.08469025 259.182621,1.96496552 C258.842757,1.84524078 258.479726,1.78537931 258.093517,1.78537931 C257.699584,1.78537931 257.336553,1.85103383 257.004414,1.98234483 C256.672274,2.11365583 256.386484,2.29710227 256.147034,2.53268966 C255.907585,2.76827704 255.722208,3.05020526 255.590897,3.37848276 C255.459586,3.70676026 255.393931,4.0678601 255.393931,4.4617931 C255.393931,4.86345028 255.44993,5.2342052 255.561931,5.57406897 C255.673932,5.91393273 255.839999,6.20358501 256.060138,6.44303448 C256.280277,6.68248396 256.55255,6.86979243 256.876966,7.00496552 C257.201381,7.14013861 257.572136,7.20772414 257.989241,7.20772414 C258.390899,7.20772414 258.761653,7.10538033 259.101517,6.90068966 C259.441381,6.69599898 259.703999,6.41986381 259.889379,6.07227586 L259.912552,6.09544828 C259.881655,7.16910882 259.715588,7.96661808 259.414345,8.488 C259.113102,9.00938192 258.661244,9.27006897 258.058759,9.27006897 C257.664826,9.27006897 257.324967,9.16193212 257.039172,8.94565517 C256.753378,8.72937823 256.591173,8.4204158 256.552552,8.01875862 L256.552552,8.01875862 Z M259.738759,4.53131034 C259.738759,4.77075982 259.700138,5.00055062 259.622897,5.22068966 C259.545655,5.44082869 259.433656,5.6339302 259.286897,5.8 C259.140137,5.9660698 258.962484,6.09737883 258.753931,6.19393103 C258.545378,6.29048324 258.313656,6.33875862 258.058759,6.33875862 C257.819309,6.33875862 257.601104,6.29048324 257.404138,6.19393103 C257.207171,6.09737883 257.037242,5.96800081 256.894345,5.8057931 C256.751448,5.6435854 256.639449,5.45820794 256.558345,5.24965517 C256.477241,5.04110241 256.43669,4.82482871 256.43669,4.60082759 C256.43669,4.34592976 256.465655,4.10262185 256.523586,3.87089655 C256.581518,3.63917126 256.674206,3.43255263 256.801655,3.25103448 C256.929104,3.06951633 257.095171,2.9246902 257.299862,2.81655172 C257.504553,2.70841325 257.753654,2.65434483 258.047172,2.65434483 C258.325243,2.65434483 258.568551,2.70455122 258.777103,2.80496552 C258.985656,2.90537981 259.161379,3.04248189 259.304276,3.21627586 C259.447173,3.39006983 259.55531,3.5889644 259.62869,3.81296552 C259.702069,4.03696664 259.738759,4.27641252 259.738759,4.53131034 L259.738759,4.53131034 Z M262.994483,8.01875862 L262.009655,8.01875862 C262.071449,8.72938286 262.330205,9.25848102 262.785931,9.60606897 C263.241657,9.95365691 263.813238,10.1274483 264.50069,10.1274483 C265.497108,10.1274483 266.221239,9.74703829 266.673103,8.9862069 C267.124968,8.22537551 267.350897,7.13435193 267.350897,5.71310345 C267.350897,4.93296162 267.275587,4.28993356 267.124966,3.784 C266.974344,3.27806644 266.771587,2.8783463 266.51669,2.58482759 C266.261792,2.29130888 265.964415,2.08469025 265.624552,1.96496552 C265.284688,1.84524078 264.921657,1.78537931 264.535448,1.78537931 C264.141515,1.78537931 263.778484,1.85103383 263.446345,1.98234483 C263.114205,2.11365583 262.828415,2.29710227 262.588966,2.53268966 C262.349516,2.76827704 262.164139,3.05020526 262.032828,3.37848276 C261.901517,3.70676026 261.835862,4.0678601 261.835862,4.4617931 C261.835862,4.86345028 261.891862,5.2342052 262.003862,5.57406897 C262.115863,5.91393273 262.28193,6.20358501 262.502069,6.44303448 C262.722208,6.68248396 262.994481,6.86979243 263.318897,7.00496552 C263.643312,7.14013861 264.014067,7.20772414 264.431172,7.20772414 C264.83283,7.20772414 265.203585,7.10538033 265.543448,6.90068966 C265.883312,6.69599898 266.14593,6.41986381 266.33131,6.07227586 L266.354483,6.09544828 C266.323586,7.16910882 266.157519,7.96661808 265.856276,8.488 C265.555033,9.00938192 265.103175,9.27006897 264.50069,9.27006897 C264.106757,9.27006897 263.766898,9.16193212 263.481103,8.94565517 C263.195309,8.72937823 263.033104,8.4204158 262.994483,8.01875862 L262.994483,8.01875862 Z M266.18069,4.53131034 C266.18069,4.77075982 266.142069,5.00055062 266.064828,5.22068966 C265.987586,5.44082869 265.875587,5.6339302 265.728828,5.8 C265.582068,5.9660698 265.404415,6.09737883 265.195862,6.19393103 C264.987309,6.29048324 264.755587,6.33875862 264.50069,6.33875862 C264.26124,6.33875862 264.043035,6.29048324 263.846069,6.19393103 C263.649102,6.09737883 263.479173,5.96800081 263.336276,5.8057931 C263.193379,5.6435854 263.08138,5.45820794 263.000276,5.24965517 C262.919172,5.04110241 262.878621,4.82482871 262.878621,4.60082759 C262.878621,4.34592976 262.907586,4.10262185 262.965517,3.87089655 C263.023449,3.63917126 263.116137,3.43255263 263.243586,3.25103448 C263.371035,3.06951633 263.537102,2.9246902 263.741793,2.81655172 C263.946484,2.70841325 264.195585,2.65434483 264.489103,2.65434483 C264.767174,2.65434483 265.010482,2.70455122 265.219034,2.80496552 C265.427587,2.90537981 265.60331,3.04248189 265.746207,3.21627586 C265.889104,3.39006983 265.997241,3.5889644 266.070621,3.81296552 C266.144,4.03696664 266.18069,4.27641252 266.18069,4.53131034 L266.18069,4.53131034 Z M269.818759,4.1142069 C269.818759,3.93655084 269.830345,3.74924236 269.853517,3.55227586 C269.87669,3.35530936 269.924965,3.17379393 269.998345,3.00772414 C270.071725,2.84165434 270.174068,2.70262125 270.305379,2.59062069 C270.43669,2.47862013 270.610482,2.42262069 270.826759,2.42262069 C271.05076,2.42262069 271.226482,2.47862013 271.353931,2.59062069 C271.48138,2.70262125 271.579862,2.84165434 271.649379,3.00772414 C271.718897,3.17379393 271.76331,3.35530936 271.782621,3.55227586 C271.801931,3.74924236 271.811586,3.93268881 271.811586,4.10262069 C271.811586,4.28027675 271.8,4.46951624 271.776828,4.67034483 C271.753655,4.87117342 271.70538,5.05461986 271.632,5.22068966 C271.55862,5.38675945 271.456277,5.52386153 271.324966,5.632 C271.193655,5.74013847 271.016001,5.7942069 270.792,5.7942069 C270.575723,5.7942069 270.403863,5.73820746 270.276414,5.6262069 C270.148965,5.51420634 270.050483,5.37517324 269.980966,5.20910345 C269.911448,5.04303365 269.867035,4.86151823 269.847724,4.66455172 C269.828414,4.46758522 269.818759,4.28413878 269.818759,4.1142069 L269.818759,4.1142069 Z M268.949793,4.13737931 C268.949793,4.45407055 268.98262,4.75144689 269.048276,5.02951724 C269.113931,5.3075876 269.220137,5.55089551 269.366897,5.75944828 C269.513656,5.96800104 269.706757,6.13213733 269.946207,6.25186207 C270.185656,6.37158681 270.479171,6.43144828 270.826759,6.43144828 C271.166622,6.43144828 271.452413,6.36579376 271.684138,6.23448276 C271.915863,6.10317176 272.107034,5.93131141 272.257655,5.71889655 C272.408277,5.5064817 272.516413,5.25931175 272.582069,4.97737931 C272.647724,4.69544687 272.680552,4.40386358 272.680552,4.10262069 C272.680552,3.78592945 272.651586,3.4866221 272.593655,3.20468966 C272.535724,2.92275721 272.435311,2.67751828 272.292414,2.46896552 C272.149517,2.26041275 271.960277,2.09434545 271.72469,1.97075862 C271.489102,1.8471718 271.189795,1.78537931 270.826759,1.78537931 C270.471446,1.78537931 270.17407,1.84910281 269.934621,1.97655172 C269.695171,2.10400064 269.50207,2.27586099 269.35531,2.49213793 C269.208551,2.70841487 269.104276,2.95751583 269.042483,3.23944828 C268.980689,3.52138072 268.949793,3.82068807 268.949793,4.13737931 L268.949793,4.13737931 Z M275.542345,7.8217931 C275.542345,7.64413704 275.553931,7.45682857 275.577103,7.25986207 C275.600276,7.06289557 275.648551,6.88138014 275.721931,6.71531034 C275.795311,6.54924055 275.897655,6.41020746 276.028966,6.2982069 C276.160277,6.18620634 276.334068,6.1302069 276.550345,6.1302069 C276.774346,6.1302069 276.950068,6.18620634 277.077517,6.2982069 C277.204966,6.41020746 277.303448,6.54924055 277.372966,6.71531034 C277.442483,6.88138014 277.486896,7.06289557 277.506207,7.25986207 C277.525517,7.45682857 277.535172,7.64027501 277.535172,7.8102069 C277.535172,7.98786296 277.523586,8.17710244 277.500414,8.37793103 C277.477241,8.57875962 277.428966,8.76220607 277.355586,8.92827586 C277.282207,9.09434566 277.179863,9.23144774 277.048552,9.33958621 C276.917241,9.44772468 276.739587,9.5017931 276.515586,9.5017931 C276.299309,9.5017931 276.127449,9.44579366 276,9.3337931 C275.872551,9.22179254 275.774069,9.08275945 275.704552,8.91668966 C275.635034,8.75061986 275.590621,8.56910443 275.57131,8.37213793 C275.552,8.17517143 275.542345,7.99172499 275.542345,7.8217931 L275.542345,7.8217931 Z M274.673379,7.84496552 C274.673379,8.16165676 274.706207,8.45903309 274.771862,8.73710345 C274.837518,9.0151738 274.943723,9.2565507 275.090483,9.46124138 C275.237242,9.66593206 275.430344,9.82813733 275.669793,9.94786207 C275.909243,10.0675868 276.202757,10.1274483 276.550345,10.1274483 C276.890209,10.1274483 277.175999,10.0637248 277.407724,9.93627586 C277.639449,9.80882695 277.83062,9.63889761 277.981241,9.42648276 C278.131863,9.2140679 278.24,8.96689796 278.305655,8.68496552 C278.371311,8.40303307 278.404138,8.11144978 278.404138,7.8102069 C278.404138,7.49351566 278.375173,7.19420831 278.317241,6.91227586 C278.25931,6.63034342 278.158897,6.38510449 278.016,6.17655172 C277.873103,5.96799896 277.683863,5.80193165 277.448276,5.67834483 C277.212688,5.554758 276.913381,5.49296552 276.550345,5.49296552 C276.195033,5.49296552 275.897656,5.55668902 275.658207,5.68413793 C275.418757,5.81158684 275.225656,5.98344719 275.078897,6.19972414 C274.932137,6.41600108 274.827862,6.66510204 274.766069,6.94703448 C274.704276,7.22896693 274.673379,7.52827428 274.673379,7.84496552 L274.673379,7.84496552 Z M276.295448,1.63475862 L270.062069,10.2433103 L271.058483,10.2433103 L277.280276,1.63475862 L276.295448,1.63475862 Z" id="42%"></path>
                    </g>
                </g>
            </g>
        </g>
    </g>
</svg>